<?xml version="1.0" encoding="UTF-8" standalone="no"?>
<svg
   xmlns:dc="http://purl.org/dc/elements/1.1/"
   xmlns:cc="http://creativecommons.org/ns#"
   xmlns:rdf="http://www.w3.org/1999/02/22-rdf-syntax-ns#"
   xmlns:svg="http://www.w3.org/2000/svg"
   xmlns="http://www.w3.org/2000/svg"
   id="svg8"
   version="1.1"
   viewBox="0 0 31.750034 21.166752"
   height="80.00032"
   width="120.00013">
  <defs
     id="defs2" />
  <metadata
     id="metadata5">
    <rdf:RDF>
      <cc:Work
         rdf:about="">
        <dc:format>image/svg+xml</dc:format>
        <dc:type
           rdf:resource="http://purl.org/dc/dcmitype/StillImage" />
        <dc:title></dc:title>
      </cc:Work>
    </rdf:RDF>
  </metadata>
  <g
     transform="translate(0,-275.83326)"
     id="layer1">
    <rect
       y="283.77084"
       x="3.4371125e-05"
       height="13.229167"
       width="31.75"
       id="rect4529-9"
       style="opacity:1;fill:#c4996d;fill-opacity:1;stroke:none;stroke-width:0.24896742;stroke-opacity:1" />
    <path
       id="path4531-3"
       d="m 3.4000007e-5,291.85351 c 0,0 1.614367999993,-3.4384 3.237960999993,-3.82078 1.556008,-0.36647 2.8473,2.19854 4.407225,1.8929 2.1059325,-0.41262 2.539463,-4.49095 4.677054,-4.63761 1.328556,-0.0912 1.996352,1.95504 3.23796,2.46076 1.23814,0.50432 2.630192,0.50502 3.957507,0.47324 1.51773,-0.0364 3.044563,-1.22141 4.497168,-0.75716 1.096136,0.35031 1.943417,1.41815 2.518412,2.46077 0.463577,0.84058 -0.06102,2.19407 0.629605,2.83936 0.406019,0.37937 1.080858,0.26444 1.61898,0.1893 1.060874,-0.14813 2.968128,-1.23328 2.968128,-1.23328 v -7.95017 H 3.4000007e-5 Z"
       style="fill:#aa7c51;fill-opacity:1;stroke:none;stroke-width:0.25833967px;stroke-linecap:butt;stroke-linejoin:miter;stroke-opacity:1" />
    <ellipse
       transform="rotate(60)"
       ry="1.6704345"
       rx="2.5390604"
       cy="142.33289"
       cx="255.08046"
       id="path4548-3"
       style="opacity:1;fill:#aa7c51;fill-opacity:1;stroke:none;stroke-width:0.26458332;stroke-opacity:1" />
    <ellipse
       transform="rotate(90)"
       ry="1.1485212"
       rx="1.7457522"
       cy="-8.4858437"
       cx="293.34222"
       id="path4548-6-8"
       style="opacity:1;fill:#aa7c51;fill-opacity:1;stroke:none;stroke-width:0.18191648;stroke-opacity:1" />
    <ellipse
       transform="matrix(-0.53259046,0.84637309,-0.8852381,-0.46513816,0,0)"
       ry="2.0081179"
       rx="3.1925011"
       cy="-174.9254"
       cx="249.34889"
       id="path4548-62-0"
       style="opacity:1;fill:#aa7c51;fill-opacity:1;stroke:none;stroke-width:0.3252905;stroke-opacity:1" />
    <ellipse
       transform="rotate(120)"
       ry="1.1485212"
       rx="1.7457522"
       cy="-161.65604"
       cx="245.87088"
       id="path4548-6-5-5"
       style="opacity:1;fill:#aa7c51;fill-opacity:1;stroke:none;stroke-width:0.18191648;stroke-opacity:1" />
    <rect
       y="281.12503"
       x="3.4371125e-05"
       height="2.6458333"
       width="31.75"
       id="rect4610-6"
       style="opacity:1;fill:#7c4c34;fill-opacity:1;stroke:none;stroke-width:0.23684765;stroke-opacity:1" />
    <path
       id="rect4612-6"
       d="m 3.4000007e-5,275.8333 v 5.29166 H 31.750034 v -5.29166 a 1.7505142,1.7505142 0 0 1 -1.75028,1.75028 1.7505142,1.7505142 0 0 1 -0.37724,-0.0419 1.7505142,1.7505142 0 0 1 -1.692918,1.31413 1.7505142,1.7505142 0 0 1 -1.671216,-1.2361 1.7505142,1.7505142 0 0 1 -0.333313,0.0336 1.7505142,1.7505142 0 0 1 -0.388607,-0.0455 1.015523,1.015523 0 0 1 10e-4,0.032 1.015523,1.015523 0 0 1 -1.015442,1.01545 1.015523,1.015523 0 0 1 -0.868681,-0.49145 1.015523,1.015523 0 0 1 -0.868681,0.49145 1.015523,1.015523 0 0 1 -0.98182,-0.76016 1.015523,1.015523 0 0 1 -0.220659,0.0253 1.015523,1.015523 0 0 1 -0.520898,-0.1447 1.015523,1.015523 0 0 1 -0.815454,0.41187 1.015523,1.015523 0 0 1 -0.938961,-0.62994 1.7505142,1.7505142 0 0 1 -0.731738,0.16226 1.7505142,1.7505142 0 0 1 -0.284737,-0.0253 1.7505142,1.7505142 0 0 1 -1.719792,1.42886 1.7505142,1.7505142 0 0 1 -1.415934,-0.72503 1.7505142,1.7505142 0 0 1 -1.657263,1.1927 1.7505142,1.7505142 0 0 1 -1.733744,-1.52342 1.015523,1.015523 0 0 1 -0.738973,0.32039 1.015523,1.015523 0 0 1 -1.015442,-1.01544 1.015523,1.015523 0 0 1 0.0036,-0.0661 1.7505142,1.7505142 0 0 1 -0.1906855,0.0124 1.7505142,1.7505142 0 0 1 -0.8996865,-0.25115 1.015523,1.015523 0 0 1 -0.971,0.71934 1.015523,1.015523 0 0 1 -0.628386,-0.21963 1.015523,1.015523 0 0 1 0.0067,0.10594 1.015523,1.015523 0 0 1 -1.015442,1.01544 1.015523,1.015523 0 0 1 -1.015441,-1.01544 1.015523,1.015523 0 0 1 0.316776,-0.73639 1.015523,1.015523 0 0 1 -0.04599,-0.0434 1.015523,1.015523 0 0 1 -0.825789,0.4253 1.015523,1.015523 0 0 1 -0.953431,-0.66869 1.9843749,1.9843749 0 0 1 -1.806091,1.16737 A 1.9843749,1.9843749 0 0 1 0,275.83326 Z"
       style="opacity:1;fill:#8fc340;fill-opacity:1;stroke:none;stroke-width:0.23917508;stroke-opacity:1" />
  </g>
</svg>
